<svg baseProfile="tiny" xmlns="http://www.w3.org/2000/svg" viewBox="0 0 43.208 50.922"><path fill="#E3E3E3" d="M29.062.984V7.86l1.5 1.624 6.06.25-.935-3.625-4.25-4.376z"/><path fill="#fff" d="M6.714.984V43.19h29.908V9.735l-7.185-.75-.75-5.375-.25-2.626z"/><path fill="#999" d="M36.622 15.064v9.106l5.334-3.61zM5.57 15.925l-4.114 4.472 4.667 4.796.59-9.268z"/><path fill="#E3E3E3" d="M1.354 21.034V49.65h40.5V21.034L21.706 38.817z"/><path fill="#81B441" d="M17.854 15.11l1.833-.416 3.25-2.333 2.5.8 1.5 2.81v3.694l-1 2.613-2.333 1.94h-3l-2.75-1.106-1.584-3v-2.5l.667-1.64z"/><path d="M24.207 13.384c.19 0 .335.025.427.076.777.434 2.008 5.166.682 7.542-.78 1.4-2.233 2.19-3.73 2.19-.703 0-1.416-.173-2.073-.54-2.06-1.143-2.828-3.76-1.65-5.8.237-.41.594-.792.68-.878l.023-.007c.072 0 .25.13.185.235-.39 1.362-.204 2.306.264 3.202l.175.057.047-.026c.102-2.8 1.564-4.545 3.296-5.73.674-.207 1.27-.32 1.674-.32m0-2c-.777 0-1.66.223-2.266.41l-.287.09-.25.17c-.876.6-1.617 1.27-2.22 2.007-.2-.06-.408-.094-.618-.094h-.827l-.608.592c-.1.1-.617.632-1 1.294-.83 1.44-1.04 3.12-.594 4.73.454 1.637 1.52 2.993 3.006 3.82.93.517 1.982.79 3.043.79 2.274 0 4.373-1.232 5.48-3.217 1.07-1.922.883-4.446.675-5.78-.256-1.644-.834-3.756-2.13-4.48-.4-.224-.858-.33-1.403-.33zm18.3 7.755l-.02-.017-.116-.15-4.53-3.98v-4.86C37.84 4.547 33.296 0 27.708 0H7.755c-.67 0-1.237.234-1.697.7-.46.47-.69 1.032-.69 1.69V15L.7 19.14C.234 19.6 0 20.164 0 20.835v27.697c0 .528.15.99.44 1.387l.122.223c.102.12.226.21.36.27.423.332.91.508 1.468.508h38.427c.658 0 1.22-.23 1.69-.69.467-.46.7-1.026.7-1.698V20.836c0-.67-.233-1.237-.7-1.697zm-1.704 1.076l-2.963 2.672v-5.273l2.963 2.6zM29.9 2.638c1.916.64 4.527 2.2 5.472 5.98H30.9c-.552 0-1-.447-1-1V2.64zM7.755 2.19h19.952l.193.015V7.62c0 1.653 1.346 3 3 3h4.75v14.243L21.6 37.533l-2.148-1.922.014-.01-1.51-1.345-.01.01-10.388-9.286V2.39c0-.133.066-.2.197-.2zM5.367 17.614v5.407L2.33 20.304l3.037-2.69zM2.19 47.473v-24.61L16.397 35.56 2.19 47.473zm1.614 1.257l14.1-11.822 3.034 2.712c.19.17.428.255.666.255.24 0 .48-.086.67-.258l3-2.704 13.97 11.817H3.804zm37.212-1.12L26.772 35.562l14.245-12.845V47.61z" fill="#333"/></svg>