<svg baseProfile="tiny" xmlns="http://www.w3.org/2000/svg" viewBox="0 0 43.208 32.474"><path fill="#F5F5F5" d="M.702.69h41.805v31.093H.702z"/><path fill="#333" d="M42.506.69C42.04.23 41.476 0 40.816 0H2.39C1.732 0 1.17.23.7.69c-.467.46-.7 1.027-.7 1.7v27.696c0 .67.233 1.237.7 1.698.468.46 1.03.69 1.69.69h38.427c.658 0 1.22-.23 1.69-.69.467-.46.7-1.026.7-1.698V2.39c0-.672-.233-1.24-.7-1.7zM2.39 2.19h38.43c.13 0 .196.067.196.198v4.29h-1.198V4.22c0-.523-.424-.948-.948-.948h-6.524c-.523 0-.948.424-.948.948v2.458h-.825V4.22c0-.523-.424-.948-.948-.948H23.1c-.522 0-.947.424-.947.948v2.458h-.82V4.22c0-.523-.423-.948-.947-.948h-6.524c-.523 0-.948.424-.948.948v2.458H2.19v-4.29c0-.13.067-.197.2-.197zM37.92 5.17v1.51h-4.628v-1.51h4.628zm-9.244 0v1.51H24.05v-1.51h4.628zm-9.24 0v1.51h-4.627v-1.51h4.63zm21.38 25.115H2.39c-.13 0-.196-.066-.196-.197V8.678h38.825v21.407c0 .132-.067.198-.198.198z"/><circle fill="#DD2C42" cx="4.465" cy="4.392" r="1.12"/><circle fill="#E2D81B" cx="7.34" cy="4.392" r="1.12"/><circle fill="#82B541" cx="10.157" cy="4.392" r="1.12"/><path fill="#81B441" d="M19.68 15.406l3.418-1.873 2.75.416 1.25 2.85-.734 4.43-1.85 2.803-3.75.83-3.64-1.497-1.11-3.232 1.11-3.897z"/><path fill="#333" d="M24.207 14.15c.19 0 .335.024.427.075.777.434 2.008 5.166.682 7.542-.78 1.4-2.233 2.19-3.73 2.19-.703 0-1.416-.173-2.073-.54-2.06-1.143-2.828-3.76-1.65-5.8.237-.41.594-.792.68-.878l.023-.008c.072 0 .25.13.185.235-.39 1.362-.204 2.306.264 3.202l.175.056.047-.027c.102-2.802 1.564-4.546 3.296-5.73.674-.208 1.27-.32 1.674-.32m0-2c-.777 0-1.66.222-2.266.41l-.287.088-.25.17c-.876.6-1.617 1.27-2.22 2.008-.2-.062-.408-.095-.618-.095h-.827l-.608.593c-.1.1-.617.632-1 1.294-.83 1.44-1.04 3.12-.594 4.73.454 1.637 1.52 2.993 3.006 3.82.93.517 1.982.79 3.043.79 2.274 0 4.373-1.232 5.48-3.217 1.07-1.922.883-4.446.675-5.78-.256-1.644-.834-3.756-2.13-4.48-.4-.224-.858-.33-1.403-.33zM38.03 23.54l-4.113-3.547c-.17-.146-.408-.177-.61-.08-.196.095-.323.305-.313.528l.255 5.513c.008.19.112.362.276.457.164.095.365.1.534.015l1.43-.73.952 1.867c.14.275.476.384.75.244s.385-.476.245-.75l-.95-1.867 1.43-.73c.166-.084.28-.246.3-.43.024-.185-.047-.37-.188-.49z"/></svg>